<?xml version="1.0" encoding="UTF-8"?>
<svg id="Coulson-academy" xmlns="http://www.w3.org/2000/svg" xmlns:xlink="http://www.w3.org/1999/xlink" version="1.1" viewBox="0 0 512 44.2" width="512" height="43">
  <path fill="inherit" d="M31.6,6.9v9.8h-9v-5.7l-1.9-1.9h-7.5l-2.3,2.3v21.3l2.4,2.5h7.2c.3-.3.7-.7,1-1,.3-.3.7-.7,1-1v-6.5h9v10.4l-7.1,7.1h-14.4c-1.3-1.3-2.7-2.7-4.1-4.1-1.4-1.4-2.8-2.7-4.1-4.1V7.9L9.8,0h15l6.8,6.9ZM67.4,36.6l-7.8,7.6h-14.8l-7.7-7.6V7.4l7.4-7.4h15.5l7.4,7.4v29.2ZM56.2,9.1h-7.9l-2.1,2.1v21.7l2.2,2.3h7.7l2.2-2.3V11.2l-2.1-2.1ZM102.9,37.4l-6.8,6.8h-15.8l-6.8-6.8V0h9v32.9l2.3,2.3h7.1l2.3-2.3V0h8.8v37.4ZM118.5,35.2h18.6v9h-27.7V0h9.1v35.2ZM169.9,14.1h-9.1v-3.1l-1.9-1.9h-7.5l-1.9,1.9v5.9l1.5,1.5h13.5l5.7,5.5v13.2l-7.2,7.1h-15.5l-7.2-7.1v-8h9.1v4.1l2,2h7.6l2-2v-6.6l-1.5-1.5h-13.5l-5.9-5.8V6.9l6.8-6.9h15.8l6.9,6.9v7.2ZM206,36.6l-7.8,7.6h-14.8l-7.7-7.6V7.4l7.4-7.4h15.5l7.4,7.4v29.2ZM194.8,9.1h-7.9l-2.1,2.1v21.7l2.2,2.3h7.7l2.2-2.3V11.2l-2.1-2.1ZM242.9,44.2h-8.8l-14.3-28.9v28.9h-7.8V0h10.3l12.8,27V0h7.8v44.2ZM297.1,44.2h-9.3l-2.4-10.2h-10.3l-2.3,10.2h-8.1L275.7,0h11.1l10.4,44.2ZM276.3,28.8h8l-4.1-17.2-3.9,17.2ZM329.5,6.9v9.8h-9v-5.7l-1.9-1.9h-7.5l-2.3,2.3v21.3l2.4,2.5h7.2c.3-.3.7-.7,1-1,.3-.3.7-.7,1-1v-6.5h9v10.4l-7.1,7.1h-14.4c-1.3-1.3-2.7-2.7-4.1-4.1-1.4-1.4-2.8-2.7-4.1-4.1V7.9l7.9-7.9h15l6.8,6.9ZM364.4,44.2h-9.3l-2.4-10.2h-10.3l-2.3,10.2h-8.1L343,0h11.1l10.4,44.2ZM343.6,28.8h8l-4.1-17.2-3.9,17.2ZM398.7,34.9l-9.3,9.3h-20.6V0h20.9l9,9v26ZM377.9,9.1v26.1h8.4l3.3-3.3V12.3l-3.2-3.2h-8.5ZM432.6,9.1h-18.8v9h13v7h-13v10.1h18.8v9h-27.9V0h27.9v9.1ZM474,44.2h-8.7V12.3l-7.5,14.6h-3.7l-7.5-14.6v32h-8.6V0h11.1l7.3,14.9,7.4-14.9h10.2v44.2ZM498.7,25.6v18.6h-9.1v-18.6l-11.2-25.6h9.5l6.9,17.7,7-17.7h8.4l-11.4,25.6Z"/>
</svg>