<?xml version="1.0" encoding="UTF-8"?>
<svg id="shiled_logo" xmlns="http://www.w3.org/2000/svg" version="1.1" viewBox="0 0 512 512">
  <!-- Generator: Adobe Illustrator 29.0.1, SVG Export Plug-In . SVG Version: 2.1.0 Build 192)  -->
  <defs>
    <style>
      .st0 {
        fill: #1a1a1a;
        fill-rule: evenodd;
      }
    </style>
  </defs>
  <path class="st0" d="M78.3,147c-1.4-1.6-1.5-2.5-.3-4.3,8.7-13.2,18.5-25.3,29.8-36.4.7-.7,1.2-1.5,1.9-2.5,33,26.5,65.5,52.6,98.2,78.8.7-1.6,1.3-2.9,1.9-4.2,6.4-14.9,12.7-29.8,19.3-44.6,2.9-6.5,6.4-12.8,9.8-19,4.3-8,11.2-11.8,20.1-12.3.7,0,1.4-.3,2.1-.4h15c4.4.6,8.8,1,13.1,1.8,3.9.8,7.7,1.8,11.5,3.1,5,1.7,7.3,5.5,7.3,10.9-.6,0-1.2-.1-1.8-.1-4.4.1-8.9-.3-13.2.5-8.6,1.7-13.3,8.1-9.3,18.2,6,15.4,13.3,30.4,20,45.5,0,.2.3.4.5.7.6-.5,1.3-1,1.9-1.5,31.4-25,62.8-50.1,94.2-75.2,1.9-1.5,2.9-1.2,4.5.3,11,10.9,20.8,22.9,29.4,35.8,1,1.6,1,2.5-.3,3.9-28,31.7-56,63.4-84,95.1-30.7,34.8-61.5,69.6-92.2,104.4-.5.6-1.1,1.2-1.7,1.9-.6-.6-1.1-1.2-1.6-1.7-58.7-66.2-117.4-132.5-176.1-198.7ZM256,355.8c-13.9-15.5-27.7-30.9-41.6-46.4-27.6,40.4-55,80.6-82.4,120.8.5.4.8.7,1.1.9,30,21.3,63.3,34,99.8,38.1,4.2.5,8.5.9,12.7,1.3h21.2c2.6-.3,5.1-.6,7.7-.8,38.1-3.3,72.9-16.1,104.2-38,.6-.4,1.1-.9,1.7-1.4-27.7-40.3-55.2-80.5-82.9-120.9-13.9,15.6-27.7,30.9-41.6,46.4ZM112,205.4c.5-.4,1.1-.7,1.7-1.1-14.3-17.2-28.1-33.9-42.1-50.8-.4.5-.7.9-.9,1.2-13.8,24.8-22.3,51.4-25.4,79.6-.5,4.4-.9,8.8-1.3,13.1v19c.6-.4,1.2-.9,1.7-1.3,22.1-19.9,44.1-39.9,66.2-59.8ZM467.7,245.9c-2-32-10.7-62-26.1-90-.3-.5-.7-1-1.1-1.7-14,16.9-27.9,33.6-42,50.6.6.4,1,.7,1.4,1,22.2,20,44.4,40.1,66.5,60.1.5.4,1.1.7,1.6,1.1v-18.6c-.1-.9-.3-1.7-.4-2.6ZM155.4,254.7c-.6.7-.9,1.1-1.2,1.5-28.9,31.6-57.9,63.3-86.9,94.9-1,1-1.1,1.8-.4,3,9.4,18.4,21.2,35,35.3,50,.4.4.8.7,1.3,1.2,29.2-35.9,58.3-71.7,87.5-107.5-11.9-14.3-23.7-28.6-35.7-43.1ZM385.1,286.5c-9.4-10.3-18.8-20.5-28.4-31.1-12,14.5-23.8,28.7-35.6,43,29.3,36,58.4,71.7,88,108,.5-.8.7-1.4,1.1-1.9,14-14.8,25.6-31.3,34.9-49.5.8-1.6.6-2.5-.6-3.8-19.8-21.6-39.6-43.2-59.4-64.9ZM117,208.4c-.3.1-.5.2-.6.2-23.7,21.2-47.3,42.3-71,63.6-.5.5-.9,1.5-.8,2.3,1.3,17.4,4.6,34.5,10.3,51,2.6,7.6,5.7,15,8.7,23,29.9-32.8,59.3-65,88.8-97.3-11.9-14.4-23.7-28.6-35.5-42.8ZM465.3,271.5c-22.8-20.3-45.6-40.8-68.4-61.2-.5-.5-1.1-.9-1.8-1.5-11.9,14.3-23.7,28.6-35.6,42.9,29.5,32.3,58.8,64.5,88.5,96.9.5-1,.8-1.7,1.1-2.4,10-22.2,16.1-45.5,18.2-69.8.2-2.2-.4-3.6-2-5.1ZM266.6,18.1c0,.7-.2,1.3-.7,1.8-.5.5-1.1.7-1.8.7-.7,0-1.4-.2-2-.6-.6-.4-1.5-1.2-2.8-2.5-1.4-1.4-2.4-2.3-3.1-2.7,0,.8.3,2.1.8,3.9.5,1.9.8,3.2.8,4,0,.9-.2,1.6-.7,2.2-.5.5-1.1.8-1.9.8-.8,0-1.4-.3-1.9-.8-.5-.6-.7-1.3-.7-2.1,0-.8.3-2.1.8-4,.5-1.8.8-3.2.8-3.9-.7.4-1.7,1.3-3.1,2.7-1.2,1.3-2.1,2.1-2.8,2.5-.6.4-1.3.6-2,.6-.7,0-1.3-.2-1.8-.7-.5-.5-.7-1.1-.7-1.8,0-.7.3-1.4.9-2,.6-.6,2.1-1.2,4.5-1.8,1.9-.5,3.2-.9,3.8-1.3-.7-.4-1.9-.8-3.7-1.2-2.4-.6-3.9-1.1-4.6-1.7-.7-.6-1-1.3-1-2,0-.7.2-1.3.7-1.8.5-.5,1.1-.7,1.8-.7.6,0,1.2.2,1.8.6.6.4,1.6,1.3,2.9,2.6,1.4,1.4,2.4,2.3,3.1,2.7,0-.8-.3-2.1-.8-3.9-.5-1.9-.8-3.2-.8-4,0-.9.2-1.6.7-2.1.5-.6,1.1-.8,1.9-.8.8,0,1.4.3,1.9.8.5.5.7,1.3.7,2.2,0,.8-.3,2.1-.8,4-.5,1.9-.8,3.2-.8,3.9.7-.4,1.7-1.3,3-2.7,1.3-1.3,2.3-2.2,2.9-2.6.6-.4,1.3-.6,1.9-.6.7,0,1.3.2,1.8.7.5.5.7,1.1.7,1.8,0,.8-.3,1.5-1,2.1-.7.6-2.2,1.2-4.5,1.7-1.9.5-3.2.9-3.8,1.3.7.4,2,.8,3.9,1.3,2.4.6,3.9,1.2,4.5,1.7.6.6.9,1.2.9,2ZM325.7,28.2c-.2.7-.6,1.2-1.2,1.6-.6.3-1.2.4-1.9.3-.7-.2-1.3-.5-1.8-1.1-.5-.5-1.2-1.6-2-3.1-1-1.7-1.8-2.9-2.3-3.4-.2.8-.3,2.1-.2,4,0,1.9,0,3.3-.2,4.1-.2.9-.6,1.5-1.2,1.9-.6.4-1.3.5-2,.3-.8-.2-1.3-.6-1.6-1.3-.3-.7-.4-1.4-.2-2.3.2-.8.8-2,1.8-3.6,1-1.7,1.6-2.9,1.8-3.6-.8.2-2,.8-3.7,1.9-1.5.9-2.6,1.5-3.3,1.8-.7.2-1.4.3-2,.1-.7-.2-1.2-.6-1.5-1.2-.3-.6-.4-1.2-.3-1.9.2-.7.6-1.3,1.4-1.7.8-.4,2.4-.6,4.8-.6,2,0,3.3,0,4-.3-.5-.5-1.7-1.2-3.3-2.1-2.2-1.1-3.5-2.1-4-2.8-.5-.7-.7-1.5-.5-2.2.2-.7.6-1.2,1.1-1.6.6-.4,1.2-.5,1.9-.3.6.1,1.1.5,1.6,1,.5.5,1.3,1.6,2.2,3.2,1,1.7,1.7,2.8,2.3,3.4.2-.7.2-2.1.2-4,0-2,0-3.3.2-4.1.2-.8.6-1.5,1.2-1.9.6-.4,1.3-.5,2-.3.8.2,1.3.6,1.6,1.3.3.6.4,1.4.2,2.3-.2.8-.8,2-1.8,3.7-1,1.7-1.6,2.9-1.8,3.6.7-.2,1.9-.8,3.6-1.9,1.6-1,2.8-1.6,3.5-1.8.7-.2,1.4-.3,2-.1.7.2,1.2.5,1.5,1.1.4.6.4,1.2.3,2-.2.8-.7,1.4-1.5,1.8-.8.4-2.4.6-4.8.6-1.9,0-3.3,0-4,.3.5.5,1.7,1.3,3.4,2.2,2.2,1.2,3.5,2.1,3.9,2.8.5.7.6,1.4.4,2.2ZM380.4,52.7c-.4.6-.9,1.1-1.5,1.2-.7.2-1.3.1-1.9-.2-.6-.3-1.1-.8-1.4-1.5-.3-.6-.7-1.8-1.2-3.5-.5-1.9-1-3.2-1.4-3.9-.4.7-.8,2-1.2,3.8-.4,1.9-.8,3.2-1.2,3.9-.4.8-1,1.3-1.7,1.5-.7.2-1.4.2-2.1-.2-.7-.4-1.1-.9-1.3-1.6-.2-.7,0-1.5.4-2.2.4-.7,1.2-1.7,2.6-3.1,1.4-1.4,2.2-2.4,2.6-3.1-.8,0-2.1.3-4,.9-1.7.5-2.9.8-3.6.9-.7,0-1.4,0-2-.4-.6-.3-1-.8-1.2-1.5-.2-.7-.1-1.3.2-1.9.4-.6.9-1.1,1.8-1.3.8-.2,2.4,0,4.8.6,1.9.5,3.2.7,4,.7-.4-.7-1.3-1.6-2.7-2.9-1.8-1.6-2.9-2.9-3.2-3.7-.3-.8-.3-1.6,0-2.3.3-.6.8-1,1.5-1.2.7-.2,1.3-.1,1.9.2.5.3,1,.8,1.3,1.4.4.6.8,1.9,1.3,3.7.5,1.9,1,3.2,1.4,3.8.4-.7.8-1.9,1.2-3.8.4-1.9.8-3.2,1.2-3.9.4-.8,1-1.3,1.7-1.5.7-.3,1.4-.2,2.1.2.7.4,1.1.9,1.3,1.6.2.7,0,1.5-.4,2.2-.4.7-1.3,1.7-2.6,3.1-1.4,1.4-2.2,2.4-2.6,3.1.8,0,2.1-.3,3.9-.9,1.8-.6,3.1-.9,3.8-.9.8,0,1.4,0,1.9.4.6.3,1,.8,1.2,1.5.2.6.1,1.3-.2,2-.4.7-1,1.1-1.9,1.3-.9.2-2.5,0-4.8-.6-1.9-.5-3.2-.8-3.9-.7.4.6,1.3,1.6,2.8,3,1.8,1.7,2.9,2.9,3.1,3.7.3.8.2,1.5-.2,2.2ZM427.3,90c-.5.5-1.1.8-1.8.8-.7,0-1.3-.2-1.8-.7-.5-.5-.9-1.1-1-1.8-.2-.7-.3-1.9-.3-3.7,0-2-.2-3.4-.4-4.1-.5.6-1.2,1.7-2.1,3.4-.9,1.7-1.6,2.9-2.1,3.5-.6.7-1.3,1-2,1.1-.7,0-1.4-.2-1.9-.7-.6-.5-.8-1.2-.8-1.9,0-.7.3-1.4.9-2.1.5-.6,1.6-1.4,3.3-2.3,1.7-1,2.8-1.7,3.3-2.3-.8-.2-2.1-.2-4.1-.1-1.8,0-3,0-3.7,0-.7-.1-1.3-.4-1.8-.9-.5-.5-.8-1.1-.8-1.7,0-.7.2-1.3.7-1.8.5-.5,1.2-.8,2-.8.9,0,2.4.6,4.5,1.8,1.7.9,2.9,1.5,3.7,1.7-.2-.7-.8-1.9-1.9-3.5-1.3-2-2-3.5-2.1-4.4,0-.9.1-1.6.6-2.2.5-.5,1.1-.8,1.8-.8.7,0,1.3.2,1.8.7.4.4.7,1,.9,1.7.2.7.3,2,.4,3.9,0,2,.2,3.3.4,4.1.5-.6,1.2-1.7,2.1-3.4.9-1.8,1.6-2.9,2.1-3.5.6-.6,1.3-1,2-1.1.7,0,1.4.2,2,.7.6.5.8,1.2.8,1.9,0,.7-.3,1.4-.9,2.1-.5.6-1.6,1.4-3.3,2.4-1.7,1-2.8,1.8-3.3,2.3.7.2,2.1.2,4,0,1.9,0,3.2,0,3.9,0,.7.2,1.3.4,1.8.8.5.5.8,1,.8,1.7,0,.7-.2,1.3-.7,1.8-.5.6-1.3.9-2.1.8-.9,0-2.4-.6-4.5-1.8-1.7-1-2.9-1.5-3.6-1.7.2.7.9,1.9,2,3.6,1.3,2.1,2,3.5,2.1,4.4,0,.8-.2,1.5-.7,2.1ZM463.4,137.8c-.6.4-1.3.5-1.9.4-.7-.2-1.2-.5-1.5-1.1-.4-.6-.6-1.3-.6-2,0-.7.2-1.9.6-3.7.5-2,.7-3.3.6-4.1-.7.4-1.6,1.4-2.9,2.8-1.3,1.5-2.3,2.4-2.9,2.8-.8.5-1.5.7-2.2.6-.7-.1-1.3-.5-1.7-1.2-.4-.7-.5-1.3-.3-2,.2-.7.7-1.3,1.4-1.8.7-.4,1.9-.9,3.8-1.4,1.8-.5,3.1-1,3.8-1.4-.7-.4-2-.8-4-1.1-1.7-.4-2.9-.7-3.6-1-.7-.3-1.2-.7-1.6-1.3-.4-.6-.5-1.2-.3-1.9.2-.7.5-1.2,1.1-1.6.6-.4,1.3-.5,2.2-.3.8.2,2.1,1.2,3.9,2.9,1.4,1.3,2.5,2.2,3.1,2.6,0-.8-.4-2-.9-3.8-.8-2.3-1.1-3.9-1-4.8.1-.9.5-1.5,1.2-1.9.6-.4,1.2-.5,1.9-.4.7.1,1.2.5,1.6,1.1.3.5.5,1.1.5,1.9,0,.7-.2,2-.6,3.9-.5,1.9-.7,3.3-.6,4,.6-.4,1.6-1.3,2.9-2.8,1.3-1.5,2.3-2.4,2.9-2.8.7-.5,1.5-.7,2.2-.5.7.1,1.3.5,1.7,1.2.4.7.5,1.3.3,2-.2.7-.7,1.3-1.4,1.8-.7.4-1.9.9-3.8,1.5-1.9.5-3.1,1-3.8,1.4.7.4,2,.7,3.9,1.1,1.8.4,3.1.7,3.8,1.1.7.3,1.2.8,1.5,1.3.4.6.5,1.2.4,1.9-.1.7-.5,1.2-1.2,1.6-.7.4-1.4.5-2.3.3-.8-.2-2.1-1.2-3.9-2.9-1.4-1.4-2.4-2.2-3.1-2.5,0,.8.4,2.1,1,3.9.8,2.3,1.1,3.9,1,4.7-.2.8-.6,1.4-1.2,1.9ZM486.5,193.1c-.7.2-1.3.2-1.9-.1-.6-.3-1-.8-1.2-1.4-.2-.7-.2-1.4,0-2.1.2-.7.7-1.8,1.5-3.4.9-1.8,1.5-3,1.6-3.8-.7.2-1.9.9-3.5,2-1.6,1.1-2.8,1.8-3.5,2-.9.3-1.6.3-2.3,0-.7-.3-1.1-.8-1.4-1.6-.2-.7-.2-1.4.2-2.1.4-.6,1-1.1,1.8-1.4.7-.2,2.1-.4,4-.5,1.9,0,3.3-.2,4-.4-.6-.5-1.8-1.2-3.6-2.1-1.6-.8-2.7-1.4-3.3-1.8-.6-.5-1-1-1.2-1.7-.2-.7-.2-1.3.2-1.9.3-.6.8-1,1.5-1.2.7-.2,1.4-.1,2.2.3.8.4,1.8,1.7,3.1,3.8,1,1.7,1.8,2.7,2.4,3.2.2-.7.2-2.1,0-3.9-.2-2.4-.1-4.1.3-4.9s.9-1.4,1.6-1.6c.7-.2,1.3-.2,1.9.1.6.3,1,.8,1.3,1.4.2.6.2,1.2,0,1.9-.2.7-.7,1.9-1.6,3.6-.9,1.7-1.5,3-1.6,3.7.7-.2,1.9-.9,3.5-2,1.6-1.1,2.8-1.8,3.6-2,.8-.3,1.6-.3,2.3,0,.7.3,1.1.8,1.4,1.5.2.7.2,1.4-.2,2.1-.4.6-1,1.1-1.8,1.4-.7.2-2.1.4-4.1.5-1.9,0-3.3.2-4,.4.6.5,1.7,1.2,3.5,2,1.7.8,2.8,1.5,3.4,2,.6.5,1,1,1.1,1.6.2.7.2,1.3-.1,1.9-.3.6-.8,1-1.5,1.3-.8.2-1.5.1-2.3-.3-.8-.5-1.8-1.7-3-3.7-1-1.7-1.8-2.7-2.4-3.2-.2.7-.2,2.1,0,4.1.2,2.5.1,4.1-.3,4.8-.4.8-.9,1.3-1.6,1.5ZM495.1,252.5c-.7,0-1.4-.2-1.9-.6-.5-.5-.8-1-.8-1.7,0-.7.1-1.4.5-2,.4-.6,1.1-1.6,2.3-2.9,1.3-1.5,2.2-2.6,2.5-3.3-.8,0-2.1.4-3.9,1.1-1.8.7-3.1,1-3.9,1.1-.9,0-1.6-.1-2.2-.6-.6-.4-.9-1.1-.9-1.8,0-.8.2-1.4.7-1.9.5-.5,1.2-.8,2.1-.9.8,0,2.1.1,4,.6,1.9.4,3.2.6,4,.6-.4-.7-1.4-1.6-2.9-2.9-1.4-1.1-2.2-2-2.7-2.6-.4-.6-.7-1.2-.7-1.9,0-.7.2-1.3.6-1.8.5-.5,1-.8,1.7-.8.7,0,1.4.2,2,.8.6.6,1.3,2.1,2.1,4.4.6,1.9,1.1,3.1,1.5,3.7.3-.7.7-2,1-3.8.4-2.4.9-4,1.5-4.7.6-.7,1.2-1.1,2-1.1.7,0,1.3.2,1.8.6.5.5.8,1,.9,1.7,0,.6-.1,1.2-.5,1.9-.3.7-1.1,1.7-2.4,3.1-1.3,1.5-2.2,2.5-2.5,3.2.8,0,2-.4,3.9-1.1,1.9-.7,3.2-1,3.9-1.1.9,0,1.6.1,2.2.6.6.4.9,1.1,1,1.8,0,.8-.2,1.4-.7,1.9-.5.5-1.2.8-2.1.9-.8,0-2.1-.1-4.1-.6-1.9-.4-3.2-.6-4-.6.4.6,1.4,1.6,2.9,2.8,1.4,1.2,2.4,2.1,2.8,2.8.4.6.7,1.2.7,1.8,0,.7-.2,1.3-.6,1.8-.4.5-1,.8-1.8.8-.8,0-1.5-.2-2.1-.9-.6-.6-1.3-2.1-2-4.4-.6-1.9-1.1-3.1-1.5-3.7-.3.7-.7,2-1,3.9-.4,2.4-.9,4-1.5,4.6-.5.7-1.2,1-1.9,1.1ZM488.7,312.1c-.7-.1-1.3-.5-1.6-1.1-.4-.6-.5-1.2-.4-1.9.1-.7.4-1.3,1-1.8.5-.5,1.5-1.3,3-2.2,1.7-1.1,2.8-2,3.3-2.5-.8-.1-2.1-.1-4,0-1.9.2-3.3.2-4.1,0-.9-.2-1.5-.5-2-1.1-.4-.6-.6-1.2-.5-2,.1-.8.5-1.3,1.2-1.7.6-.4,1.4-.5,2.2-.3.8.1,2,.7,3.8,1.5,1.7.9,3,1.4,3.7,1.5-.2-.7-.9-1.9-2.1-3.5-1-1.4-1.7-2.5-2-3.2-.3-.7-.4-1.4-.2-2,.1-.7.5-1.2,1.1-1.6.6-.4,1.2-.5,1.9-.4.7.1,1.3.6,1.8,1.3.5.7.8,2.3.9,4.8.1,1.9.3,3.3.5,4,.5-.6,1.1-1.7,1.9-3.4,1-2.2,1.9-3.6,2.6-4.2.7-.6,1.4-.8,2.2-.6.7.1,1.2.5,1.6,1,.4.6.5,1.2.4,1.9-.1.6-.4,1.2-.9,1.7-.5.6-1.5,1.3-3.1,2.4-1.6,1.1-2.7,1.9-3.2,2.5.7.1,2.1.1,4,0,2-.2,3.3-.2,4.1,0,.9.2,1.5.5,2,1.1.5.6.6,1.3.5,2-.1.8-.5,1.3-1.2,1.7-.6.4-1.4.5-2.3.3-.8-.1-2-.7-3.8-1.5-1.7-.9-3-1.4-3.7-1.5.2.7.9,1.9,2.1,3.5,1.1,1.5,1.8,2.6,2,3.4.3.7.3,1.4.2,1.9-.1.7-.5,1.2-1,1.6-.6.4-1.2.5-1.9.4-.8-.1-1.4-.6-1.8-1.4-.4-.8-.7-2.3-.9-4.7,0-1.9-.3-3.3-.5-4-.5.6-1.1,1.8-2,3.6-1,2.2-1.9,3.6-2.6,4.1-.7.5-1.4.7-2.1.5ZM467.7,368.2c-.7-.3-1.1-.8-1.3-1.4-.2-.6-.2-1.3.1-1.9.3-.6.8-1.2,1.4-1.5.6-.4,1.8-.9,3.4-1.4,1.9-.7,3.2-1.2,3.8-1.6-.7-.3-2-.6-3.9-.9-1.9-.3-3.2-.6-3.9-.9-.8-.4-1.4-.9-1.7-1.6-.3-.7-.3-1.4,0-2.1s.9-1.2,1.6-1.4c.7-.2,1.5-.1,2.3.2.7.3,1.8,1.1,3.3,2.4,1.4,1.3,2.5,2.1,3.2,2.4,0-.8-.4-2.1-1.2-4-.6-1.7-1-2.8-1.1-3.6-.1-.7,0-1.4.3-2,.3-.6.8-1,1.4-1.3.7-.2,1.3-.2,1.9,0,.7.3,1.1.9,1.4,1.7.3.8.2,2.4-.3,4.8-.4,1.9-.5,3.3-.5,4,.6-.4,1.5-1.4,2.7-2.8,1.5-1.9,2.7-3,3.5-3.4s1.6-.4,2.3,0c.6.3,1.1.8,1.3,1.4.2.6.2,1.3,0,1.9-.3.5-.7,1-1.3,1.4s-1.8.9-3.6,1.5c-1.9.6-3.1,1.2-3.7,1.6.7.3,2,.6,3.9.9,1.9.3,3.3.6,4,1,.8.4,1.3.9,1.6,1.6.3.7.3,1.4,0,2.1-.3.7-.8,1.2-1.5,1.4-.7.2-1.5.1-2.3-.3-.7-.3-1.8-1.1-3.3-2.4-1.5-1.3-2.5-2.1-3.2-2.4,0,.8.4,2.1,1.2,3.9.7,1.7,1,3,1.1,3.8,0,.8,0,1.4-.3,1.9-.3.6-.8,1.1-1.4,1.3-.6.2-1.3.2-2-.1-.7-.3-1.2-.9-1.4-1.8-.2-.8-.1-2.4.3-4.8.4-1.9.5-3.2.5-4-.6.4-1.6,1.4-2.8,3-1.5,1.9-2.7,3-3.5,3.3-.8.3-1.5.3-2.2,0ZM433.4,417.3c-.6-.5-.9-1-.9-1.7,0-.7.1-1.3.6-1.8.5-.5,1-.9,1.7-1.1.7-.2,1.9-.4,3.7-.5,2-.2,3.4-.4,4.1-.7-.6-.5-1.8-1.1-3.6-1.9-1.8-.8-3-1.4-3.6-1.9-.7-.6-1.1-1.2-1.2-1.9-.1-.7,0-1.4.6-2,.5-.6,1.1-.9,1.9-.9.7,0,1.4.2,2.1.8.6.5,1.5,1.5,2.5,3.2,1.1,1.6,1.9,2.6,2.5,3.1.1-.8,0-2.1-.1-4.1-.2-1.8-.3-3-.2-3.7,0-.7.3-1.4.8-1.9.4-.5,1-.8,1.7-.9.7,0,1.3.1,1.8.6.6.5.9,1.1.9,2,0,.9-.4,2.4-1.5,4.6-.8,1.8-1.3,3-1.5,3.8.7-.3,1.8-1,3.3-2.1,1.9-1.5,3.4-2.3,4.3-2.4.9-.1,1.6,0,2.2.5.5.4.9,1,.9,1.7,0,.7-.1,1.3-.5,1.8-.4.5-.9.8-1.6,1.1s-2,.4-3.9.6c-2,.2-3.3.4-4,.6.6.5,1.8,1.1,3.6,1.9,1.8.8,3,1.4,3.6,1.9.7.6,1.1,1.2,1.2,1.9.1.7,0,1.4-.6,2-.5.6-1.1.9-1.8.9-.7,0-1.4-.2-2.1-.8-.6-.5-1.5-1.6-2.6-3.2-1.1-1.6-1.9-2.7-2.5-3.1-.1.8,0,2.1.2,4,.2,1.9.3,3.2.1,3.9-.1.7-.4,1.4-.7,1.8-.4.5-1,.8-1.7.9-.7,0-1.3-.1-1.9-.6-.6-.5-.9-1.2-1-2.1,0-.9.5-2.4,1.5-4.6.9-1.8,1.3-3,1.4-3.7-.7.3-1.9,1-3.4,2.2-2,1.5-3.4,2.3-4.2,2.4-.8.1-1.6,0-2.1-.6ZM388,456.4c-.4-.6-.6-1.2-.5-1.9.1-.7.4-1.2,1-1.6.6-.4,1.2-.6,1.9-.7.7,0,2,.1,3.7.4,2,.3,3.3.5,4.1.4-.5-.6-1.5-1.5-3-2.7-1.5-1.2-2.5-2.1-3-2.7-.5-.7-.8-1.5-.7-2.2,0-.7.4-1.3,1.1-1.8.6-.5,1.3-.6,2-.4.7.2,1.3.6,1.9,1.3.5.6,1,1.9,1.7,3.7.6,1.8,1.2,3,1.7,3.7.3-.7.6-2.1.9-4,.2-1.8.5-3,.8-3.7.3-.7.7-1.2,1.2-1.6.6-.4,1.2-.5,1.9-.4.7.1,1.2.4,1.6,1,.4.6.6,1.3.4,2.2-.2.8-1,2.2-2.6,4.1-1.3,1.5-2,2.6-2.3,3.3.8,0,2-.5,3.7-1.2,2.2-.9,3.8-1.4,4.7-1.3.9,0,1.6.4,2,1,.4.6.6,1.2.5,1.9-.1.7-.4,1.2-1,1.6-.5.3-1.1.6-1.8.6-.7,0-2,0-3.9-.4-1.9-.3-3.3-.5-4.1-.4.4.6,1.4,1.5,3,2.7,1.6,1.2,2.6,2.1,3,2.8.5.7.7,1.4.7,2.2,0,.7-.4,1.3-1,1.8-.6.5-1.3.6-2,.5-.7-.2-1.3-.6-1.9-1.3-.5-.6-1-1.9-1.7-3.7-.7-1.8-1.2-3-1.7-3.7-.3.7-.6,2-.8,4-.3,1.9-.5,3.1-.8,3.8-.3.7-.7,1.2-1.2,1.6-.6.4-1.2.6-1.8.5-.7,0-1.2-.4-1.7-1.1-.5-.6-.6-1.4-.4-2.3.2-.9,1.1-2.2,2.6-4.1,1.3-1.5,2-2.6,2.3-3.3-.8,0-2,.5-3.9,1.3-2.3.9-3.8,1.4-4.7,1.2-.8-.1-1.5-.5-1.9-1.1ZM334.2,482.9c-.3-.7-.3-1.3,0-2,.3-.6.7-1.1,1.4-1.3.7-.3,1.3-.3,2.1-.2.7.1,1.9.6,3.5,1.3,1.8.8,3.1,1.3,3.9,1.4-.3-.7-1-1.8-2.2-3.4-1.2-1.5-1.9-2.7-2.2-3.4-.3-.8-.4-1.6-.1-2.3.2-.7.7-1.2,1.5-1.5s1.4-.3,2.1,0c.7.3,1.1.9,1.5,1.7.3.7.5,2.1.7,4,.2,1.9.4,3.2.7,4,.5-.6,1.1-1.8,1.9-3.7.7-1.6,1.2-2.8,1.6-3.4.4-.6,1-1,1.6-1.3.6-.3,1.3-.2,1.9,0,.6.3,1.1.7,1.3,1.4.3.7.2,1.4-.1,2.2-.4.8-1.5,1.9-3.5,3.3-1.6,1.1-2.6,2-3.1,2.6.8.1,2.1,0,3.9-.2,2.4-.3,4-.4,4.9,0,.8.3,1.4.8,1.7,1.5.3.7.3,1.3,0,1.9-.3.6-.7,1.1-1.4,1.3-.5.2-1.2.3-1.9.1-.7-.1-2-.6-3.7-1.3-1.8-.8-3.1-1.3-3.8-1.4.3.7,1,1.8,2.2,3.4,1.2,1.6,2,2.7,2.2,3.4.3.8.4,1.6.1,2.3-.2.7-.7,1.2-1.5,1.5-.7.3-1.4.3-2.1,0-.7-.3-1.1-.9-1.5-1.7-.3-.7-.5-2.1-.7-4-.2-1.9-.4-3.3-.7-4-.5.6-1.1,1.8-1.8,3.6-.7,1.7-1.3,2.9-1.8,3.5-.5.6-1,1-1.5,1.2-.6.3-1.3.3-1.9,0-.6-.3-1.1-.7-1.4-1.4-.3-.7-.2-1.5.2-2.3.4-.8,1.6-1.9,3.5-3.3,1.6-1.1,2.6-2,3.1-2.6-.8-.1-2.1,0-4.1.3-2.4.3-4,.4-4.8,0-.8-.3-1.3-.8-1.6-1.5ZM275.6,495.3c0-.7,0-1.4.5-1.9.4-.5,1-.8,1.7-.9.7,0,1.4,0,2,.3.6.3,1.7,1,3.1,2.1,1.6,1.2,2.7,2,3.4,2.3,0-.8-.5-2-1.3-3.8-.8-1.8-1.2-3.1-1.3-3.8-.1-.9,0-1.6.4-2.2.4-.6,1-1,1.8-1.1.8,0,1.4,0,2,.6.6.5.9,1.2,1,2,0,.8,0,2.1-.3,4-.3,1.9-.4,3.2-.3,4,.6-.5,1.5-1.5,2.7-3.1,1.1-1.4,1.9-2.4,2.4-2.8.6-.5,1.2-.8,1.9-.8.7,0,1.3,0,1.8.5.5.4.9,1,.9,1.7,0,.7-.1,1.4-.7,2.1-.5.7-2,1.4-4.3,2.3-1.8.7-3,1.3-3.6,1.7.7.3,2,.5,3.9.8,2.4.3,4,.7,4.7,1.2.7.5,1.2,1.1,1.3,1.9,0,.7,0,1.3-.5,1.9-.4.6-1,.9-1.6,1-.6,0-1.2,0-1.9-.3s-1.8-1-3.2-2.2c-1.5-1.2-2.7-2-3.4-2.3,0,.8.5,2,1.3,3.8.8,1.8,1.2,3.1,1.3,3.9.1.9,0,1.6-.4,2.2-.4.6-1,1-1.8,1.1-.8,0-1.4,0-2-.6-.6-.5-.9-1.2-1-2.1,0-.8,0-2.1.3-4.1.3-1.9.4-3.3.3-4-.6.5-1.5,1.5-2.6,3.1-1.1,1.5-2,2.5-2.6,3-.6.5-1.2.7-1.8.8-.7,0-1.3,0-1.8-.5-.5-.4-.9-1-1-1.7-.1-.8.1-1.5.7-2.2.6-.7,2-1.4,4.3-2.3,1.8-.7,3-1.3,3.6-1.7-.7-.3-2-.5-4-.8-2.4-.3-4-.7-4.7-1.2-.7-.5-1.1-1.1-1.2-1.9ZM215.7,492.6c0-.7.4-1.3.9-1.7.5-.4,1.2-.6,1.8-.5.7,0,1.3.4,1.9.8.5.5,1.4,1.4,2.4,2.8,1.2,1.6,2.1,2.6,2.7,3.1,0-.8,0-2.1-.3-4-.3-1.9-.4-3.3-.3-4,.1-.9.4-1.6,1-2.1.5-.5,1.2-.7,2-.6.8,0,1.4.4,1.8,1.1.4.6.6,1.4.5,2.2,0,.8-.5,2.1-1.3,3.8-.8,1.8-1.2,3-1.3,3.8.7-.3,1.9-1.1,3.4-2.3,1.4-1.1,2.4-1.8,3.1-2.2.7-.3,1.3-.4,2-.4.7,0,1.2.4,1.7,1,.4.6.6,1.2.5,1.9,0,.7-.5,1.3-1.2,1.9-.7.5-2.3.9-4.7,1.2-1.9.2-3.3.5-4,.8.6.5,1.8,1,3.5,1.7,2.3.9,3.7,1.6,4.3,2.3.6.7.8,1.4.8,2.1,0,.7-.4,1.3-.9,1.7-.5.4-1.2.6-1.8.5-.6,0-1.2-.3-1.8-.8-.6-.5-1.4-1.4-2.6-2.9-1.2-1.6-2.1-2.6-2.7-3,0,.8,0,2.1.3,4,.3,1.9.4,3.3.3,4.1-.1.9-.4,1.5-1,2-.5.5-1.2.7-2,.6-.8,0-1.4-.4-1.8-1-.4-.6-.6-1.3-.5-2.2,0-.8.5-2.1,1.3-3.9.8-1.8,1.2-3.1,1.3-3.8-.7.3-1.8,1.1-3.3,2.3-1.5,1.2-2.5,1.9-3.2,2.2-.7.3-1.3.4-1.9.4-.7,0-1.2-.4-1.7-.9-.4-.5-.6-1.2-.5-1.9,0-.8.5-1.4,1.2-1.9.7-.5,2.3-.9,4.7-1.2,1.9-.2,3.2-.5,3.9-.8-.6-.5-1.8-1-3.7-1.7-2.3-.9-3.7-1.6-4.3-2.3-.5-.7-.8-1.4-.7-2.1ZM158.3,475.2c.3-.7.7-1.2,1.3-1.4.6-.3,1.3-.3,1.9,0,.7.3,1.2.7,1.6,1.3.4.6,1,1.7,1.6,3.3.8,1.9,1.4,3.1,1.9,3.7.3-.7.5-2,.7-4,.2-1.9.4-3.3.7-4,.3-.8.8-1.4,1.5-1.7.7-.3,1.3-.3,2.1,0,.7.3,1.2.8,1.5,1.5.2.7.2,1.4-.1,2.3-.3.7-1,1.9-2.2,3.4-1.2,1.5-1.9,2.6-2.2,3.4.8-.1,2.1-.6,3.9-1.4,1.6-.7,2.8-1.2,3.5-1.3.7-.1,1.4,0,2,.2.6.3,1.1.7,1.4,1.3.3.6.3,1.3,0,1.9-.3.7-.8,1.2-1.6,1.5-.8.3-2.4.3-4.9,0-1.9-.3-3.3-.3-4-.2.5.6,1.5,1.4,3,2.5,2,1.4,3.2,2.5,3.6,3.3.4.8.5,1.6.2,2.3-.3.7-.7,1.1-1.3,1.4-.6.3-1.3.3-1.9,0-.6-.2-1.1-.6-1.5-1.2-.5-.6-1-1.8-1.8-3.5-.8-1.8-1.4-3-1.9-3.6-.3.7-.5,2-.7,4-.2,2-.4,3.3-.7,4-.3.8-.8,1.4-1.5,1.7-.7.3-1.3.4-2.1,0-.7-.3-1.2-.8-1.5-1.5-.3-.7-.2-1.4.1-2.3.3-.7,1-1.9,2.2-3.4,1.2-1.5,1.9-2.7,2.2-3.4-.8.1-2,.6-3.8,1.4-1.7.8-2.9,1.2-3.7,1.4-.7.1-1.4,0-1.9-.1-.6-.3-1.1-.7-1.4-1.3-.3-.6-.3-1.3,0-2,.3-.7.9-1.3,1.7-1.6.8-.3,2.4-.3,4.8,0,1.9.3,3.3.3,4,.2-.5-.6-1.5-1.5-3.1-2.6-2-1.4-3.2-2.5-3.6-3.3-.4-.8-.4-1.5-.1-2.2ZM107.1,444c.4-.6,1-.9,1.7-1,.7,0,1.3,0,1.8.5.6.4,1,1,1.2,1.6.3.7.5,1.9.8,3.7.3,2,.6,3.3.9,4,.5-.6,1-1.9,1.6-3.7.7-1.8,1.2-3.1,1.7-3.7.5-.7,1.1-1.2,1.9-1.3.7-.2,1.4,0,2,.5.6.5,1,1.1,1.1,1.8,0,.7-.2,1.5-.7,2.2-.5.6-1.5,1.5-3,2.7-1.5,1.2-2.5,2.1-3,2.7.8,0,2.1,0,4.1-.4,1.7-.3,3-.5,3.7-.4.7,0,1.4.3,1.9.7.6.4.9.9,1,1.6.1.7,0,1.3-.4,1.9-.4.6-1.1.9-1.9,1.1-.9.1-2.4-.3-4.7-1.2-1.8-.7-3.1-1.1-3.9-1.2.3.7,1.1,1.8,2.3,3.2,1.6,1.9,2.5,3.2,2.7,4.1.2.9,0,1.6-.4,2.2-.4.6-1,.9-1.6,1-.7.1-1.3,0-1.9-.4-.5-.3-.9-.9-1.2-1.6-.3-.7-.6-2-.8-3.8-.3-2-.6-3.3-.9-4-.4.6-1,1.8-1.6,3.7-.7,1.9-1.2,3.1-1.7,3.7-.5.7-1.1,1.1-1.8,1.3-.7.2-1.4,0-2-.4-.6-.5-1-1-1.1-1.8,0-.7.2-1.5.7-2.2.5-.6,1.5-1.6,3-2.8,1.5-1.2,2.5-2.1,3-2.7-.8,0-2.1,0-4,.4-1.8.3-3.1.5-3.9.4-.8,0-1.4-.3-1.9-.6-.6-.4-.9-.9-1-1.6-.1-.7,0-1.3.5-1.9.5-.6,1.1-1,2-1.1.9,0,2.4.3,4.7,1.2,1.8.7,3.1,1.1,3.8,1.2-.3-.7-1.1-1.8-2.4-3.3-1.6-1.9-2.5-3.2-2.6-4.1-.2-.8,0-1.6.4-2.2ZM65.3,401.1c.6-.5,1.2-.7,1.9-.6.7,0,1.2.4,1.7.9.5.5.7,1.2.8,1.9,0,.7,0,2-.2,3.7-.2,2-.3,3.4-.1,4.1.6-.5,1.4-1.5,2.5-3.1,1.1-1.6,1.9-2.7,2.5-3.2.7-.6,1.4-.8,2.1-.8.7,0,1.3.3,1.8.9.5.6.7,1.3.6,2-.1.7-.5,1.4-1.2,1.9-.6.5-1.8,1.1-3.6,1.9-1.8.8-2.9,1.4-3.5,1.9.7.3,2.1.5,4.1.6,1.8.1,3,.3,3.7.5.7.2,1.3.6,1.7,1.1.4.5.6,1.1.6,1.8,0,.7-.4,1.3-.9,1.7-.6.5-1.3.7-2.1.5-.9-.1-2.3-.9-4.3-2.4-1.6-1.2-2.7-1.9-3.4-2.1.1.8.6,2,1.4,3.7,1.1,2.2,1.6,3.7,1.6,4.6,0,.9-.3,1.6-.9,2.1-.5.5-1.2.6-1.8.6-.7,0-1.3-.3-1.7-.9-.4-.5-.6-1.1-.7-1.8-.1-.7,0-2,.1-3.9.2-2,.3-3.3.1-4.1-.6.5-1.4,1.5-2.5,3.1-1.1,1.6-2,2.7-2.6,3.2-.7.6-1.4.8-2.1.8-.7,0-1.4-.3-1.9-.9-.5-.6-.7-1.3-.6-2,.1-.7.5-1.4,1.2-1.9.6-.5,1.8-1.1,3.6-1.9,1.8-.8,3-1.4,3.5-1.9-.7-.3-2-.5-4-.6-1.9-.1-3.2-.3-3.9-.6-.7-.3-1.3-.6-1.6-1.1-.4-.5-.6-1.1-.6-1.8,0-.7.4-1.3.9-1.7.6-.5,1.4-.7,2.2-.6.9.1,2.3.9,4.2,2.4,1.6,1.2,2.7,1.9,3.4,2.1-.1-.7-.6-2-1.5-3.8-1.1-2.2-1.6-3.7-1.5-4.6,0-.8.4-1.5,1-2ZM35.4,349.1c.7-.3,1.3-.4,1.9-.1.6.2,1.1.7,1.4,1.3.3.6.4,1.3.3,2-.1.7-.5,1.9-1.1,3.6-.7,1.9-1.1,3.2-1.1,4,.7-.3,1.8-1.1,3.2-2.4,1.5-1.3,2.5-2.1,3.2-2.4.8-.4,1.6-.5,2.3-.3.7.2,1.2.7,1.6,1.4s.4,1.4,0,2.1c-.3.7-.8,1.2-1.6,1.6-.7.3-2,.7-3.9,1-1.9.3-3.2.6-3.9.9.6.5,1.9,1,3.8,1.6,1.7.6,2.8,1,3.5,1.4.6.4,1.1.9,1.4,1.5.3.6.3,1.3,0,1.9-.2.7-.7,1.1-1.3,1.4-.7.3-1.4.3-2.2,0-.8-.3-2-1.4-3.5-3.3-1.2-1.5-2.2-2.5-2.8-2.9,0,.8,0,2.1.5,3.9.5,2.4.6,4,.4,4.9-.3.9-.7,1.5-1.4,1.8-.6.3-1.3.3-1.9.1-.7-.2-1.1-.7-1.4-1.3-.3-.5-.3-1.2-.3-1.9s.4-2,1.1-3.7c.7-1.8,1.1-3.2,1.1-3.9-.7.3-1.8,1.1-3.2,2.4-1.5,1.3-2.6,2.1-3.3,2.5-.8.4-1.5.5-2.3.3-.7-.2-1.2-.7-1.6-1.4-.3-.7-.4-1.4,0-2.1.3-.7.8-1.2,1.6-1.6.7-.3,2-.7,4-1,1.9-.3,3.2-.6,3.9-.9-.6-.4-1.9-1-3.7-1.6-1.8-.6-3-1.1-3.6-1.5-.6-.4-1.1-.9-1.3-1.4-.3-.6-.3-1.3-.1-1.9.2-.6.7-1.1,1.3-1.4.7-.3,1.5-.3,2.3,0,.8.4,2,1.5,3.5,3.3,1.2,1.5,2.1,2.5,2.8,2.9,0-.8-.1-2.1-.5-4-.5-2.4-.6-4-.3-4.8.3-.8.7-1.4,1.4-1.7ZM19.4,291.4c.7-.1,1.4,0,1.9.4.6.4.9.9,1,1.6.1.7,0,1.4-.2,2-.3.7-.9,1.7-1.9,3.2-1.1,1.6-1.8,2.8-2.1,3.6.8-.1,2-.7,3.7-1.5,1.7-.9,3-1.4,3.7-1.6.9-.2,1.6,0,2.3.3.6.4,1,.9,1.2,1.7.1.8,0,1.4-.5,2-.5.6-1.1,1-2,1.1-.8.1-2.1.1-4.1,0-1.9-.2-3.3-.2-4,0,.5.6,1.6,1.4,3.3,2.5,1.5,1,2.5,1.7,3,2.2.5.5.8,1.1,1,1.8.1.7,0,1.3-.4,1.9-.4.6-.9.9-1.6,1.1-.7.1-1.4,0-2.1-.5-.7-.5-1.6-1.9-2.6-4.1-.8-1.8-1.5-2.9-2-3.5-.2.7-.4,2-.5,3.9-.1,2.4-.4,4-.9,4.8-.5.8-1.1,1.2-1.8,1.4-.7.1-1.3,0-1.9-.4-.6-.4-.9-.9-1.1-1.6-.1-.6,0-1.2.2-1.9.3-.7.9-1.8,2-3.4,1.1-1.6,1.8-2.8,2.1-3.5-.7.1-2,.7-3.7,1.5-1.8.9-3,1.4-3.8,1.6-.9.2-1.6,0-2.2-.3-.6-.4-1-.9-1.2-1.7-.1-.8,0-1.4.4-2,.4-.6,1.1-1,2-1.1.8-.1,2.1-.1,4.1,0,1.9.2,3.3.2,4,0-.5-.6-1.6-1.4-3.2-2.5-1.6-1-2.6-1.8-3.1-2.4-.5-.6-.8-1.1-.9-1.7-.1-.7,0-1.3.4-1.9.4-.6.9-.9,1.7-1.1.8-.2,1.5,0,2.2.6.7.5,1.5,1.9,2.5,4.1.8,1.8,1.5,2.9,2,3.5.2-.7.4-2.1.5-4,.1-2.5.4-4,.9-4.8.5-.7,1.1-1.1,1.8-1.3ZM18.3,231.4c.7,0,1.3.3,1.8.8.4.5.6,1.1.6,1.8,0,.7-.3,1.4-.7,1.9-.4.6-1.3,1.4-2.7,2.6-1.5,1.3-2.5,2.3-2.9,2.9.8,0,2.1-.1,4-.6,1.9-.4,3.2-.6,4-.6.9,0,1.6.3,2.1.9.5.5.7,1.2.7,1.9s-.4,1.4-.9,1.8c-.6.5-1.3.7-2.2.6-.8,0-2.1-.4-3.9-1.1-1.8-.7-3.1-1-3.9-1.1.3.7,1.2,1.8,2.5,3.2,1.2,1.3,2,2.3,2.3,2.9.4.6.5,1.3.5,2,0,.7-.3,1.3-.9,1.7-.5.5-1.1.7-1.8.6-.7,0-1.4-.4-1.9-1.1-.6-.7-1.1-2.2-1.5-4.6-.4-1.9-.7-3.2-1-3.9-.4.6-.9,1.9-1.5,3.6-.7,2.3-1.4,3.8-2,4.4-.6.6-1.3.9-2.1.9-.7,0-1.3-.3-1.8-.8-.5-.5-.7-1.1-.6-1.8,0-.6.3-1.2.7-1.8.4-.6,1.4-1.5,2.8-2.7,1.5-1.3,2.5-2.2,2.9-2.9-.8,0-2.1.1-4,.6-1.9.4-3.3.6-4,.6-.9,0-1.6-.3-2.1-.9-.5-.5-.8-1.2-.7-1.9,0-.8.4-1.4.9-1.8.6-.5,1.3-.7,2.2-.6.8,0,2.1.4,4,1.1,1.8.7,3.1,1,3.9,1.1-.3-.7-1.2-1.7-2.5-3.2-1.3-1.4-2.1-2.4-2.4-3.1-.3-.7-.5-1.3-.5-1.9,0-.7.3-1.3.8-1.7.5-.5,1.1-.7,1.9-.6.8,0,1.5.4,2,1.1.5.7,1,2.2,1.4,4.6.3,1.9.7,3.2,1,3.9.4-.6.9-1.9,1.5-3.8.7-2.4,1.4-3.8,2-4.4.6-.6,1.3-.8,2.1-.8ZM32.1,173.1c.7.2,1.2.6,1.5,1.2.3.6.3,1.2.1,1.9-.2.7-.6,1.2-1.2,1.7-.6.5-1.6,1.1-3.2,1.8-1.8.9-3,1.6-3.5,2.1.7.2,2.1.4,4,.4,1.9,0,3.3.2,4,.4.9.3,1.5.7,1.8,1.4.4.6.4,1.3.2,2.1s-.7,1.3-1.4,1.6c-.7.3-1.4.3-2.3,0-.7-.2-1.9-.9-3.5-2-1.6-1.1-2.8-1.7-3.5-2,.1.8.7,2,1.6,3.8.8,1.6,1.4,2.7,1.5,3.4.2.7.2,1.4,0,2-.2.7-.6,1.1-1.2,1.4-.6.3-1.3.4-1.9.1-.7-.2-1.2-.7-1.6-1.5-.4-.8-.5-2.4-.3-4.9.1-1.9.1-3.3,0-4-.6.5-1.3,1.6-2.3,3.2-1.3,2.1-2.3,3.3-3.1,3.8-.8.5-1.5.6-2.2.3-.7-.2-1.2-.6-1.5-1.2-.3-.6-.4-1.2-.2-1.9.2-.6.6-1.1,1.1-1.6.6-.5,1.7-1.1,3.4-2,1.8-.9,2.9-1.6,3.5-2.1-.7-.2-2.1-.4-4-.4-2,0-3.3-.2-4.1-.5-.8-.3-1.4-.7-1.8-1.4-.4-.6-.5-1.3-.2-2.1.2-.7.7-1.3,1.4-1.6.7-.3,1.4-.3,2.3,0,.7.2,1.9.9,3.6,2,1.6,1.1,2.8,1.8,3.5,2-.2-.7-.7-2-1.6-3.7-.9-1.7-1.4-2.8-1.6-3.6-.2-.7-.2-1.4,0-2,.2-.7.6-1.1,1.2-1.5.6-.3,1.3-.4,2-.1.8.2,1.3.8,1.7,1.6.3.8.4,2.4.3,4.8-.1,1.9-.1,3.3,0,4,.6-.5,1.4-1.6,2.4-3.3,1.3-2.1,2.3-3.3,3-3.8.7-.4,1.5-.5,2.2-.3ZM60,120.1c.6.4,1,.9,1.1,1.6.1.7,0,1.3-.3,1.9-.4.6-.9,1-1.6,1.3-.7.3-1.9.6-3.6,1-2,.4-3.3.8-4,1.2.7.4,1.9.9,3.8,1.4,1.9.5,3.1,1,3.8,1.4.8.5,1.2,1.1,1.4,1.8.2.7,0,1.4-.3,2-.4.7-1,1-1.7,1.2-.7.1-1.5,0-2.2-.5-.7-.4-1.6-1.4-2.9-2.8-1.3-1.4-2.2-2.4-2.9-2.8,0,.8.2,2.1.7,4.1.4,1.7.6,2.9.6,3.7,0,.7-.2,1.4-.5,2-.4.6-.9.9-1.6,1.1-.7.1-1.3,0-1.9-.3-.6-.4-1-1-1.2-1.9-.2-.8.1-2.4.9-4.8.6-1.9.9-3.2,1-3.9-.7.4-1.7,1.2-3,2.5-1.7,1.7-3.1,2.7-3.9,2.9-.9.3-1.6.2-2.3-.2-.6-.4-1-.9-1.1-1.6-.2-.7,0-1.3.3-1.9.3-.5.8-.9,1.5-1.2s1.9-.7,3.8-1.1c1.9-.4,3.2-.8,3.9-1.1-.6-.4-1.9-.9-3.8-1.4-1.9-.5-3.2-1-3.8-1.4-.7-.5-1.2-1.1-1.4-1.8-.2-.7-.1-1.4.3-2.1.4-.7,1-1.1,1.7-1.2.7-.1,1.5,0,2.2.5.7.4,1.6,1.4,3,2.8,1.3,1.5,2.3,2.4,2.9,2.8,0-.8-.2-2.1-.7-4-.4-1.8-.7-3.1-.6-3.9,0-.8.2-1.4.5-1.9.4-.6.9-1,1.5-1.1.7-.2,1.3,0,1.9.4.7.4,1.1,1.1,1.2,1.9.1.9-.2,2.4-.9,4.7-.6,1.8-.9,3.1-1,3.9.7-.4,1.7-1.2,3.1-2.6,1.8-1.7,3.1-2.7,3.9-2.9.8-.2,1.5-.1,2.2.3ZM100.2,75.6c.5.5.7,1.1.7,1.8,0,.7-.3,1.3-.8,1.7-.5.5-1.1.8-1.8.9-.7.1-2,.1-3.7,0-2,0-3.4,0-4.1.1.5.6,1.6,1.3,3.3,2.3,1.7,1,2.8,1.8,3.3,2.3.6.7.9,1.3,1,2.1,0,.7-.3,1.4-.8,1.9-.6.5-1.2.8-2,.7-.7,0-1.4-.4-2-1.1-.5-.6-1.2-1.7-2.1-3.4-.9-1.7-1.6-2.9-2.1-3.4-.2.7-.4,2.1-.4,4.1,0,1.8-.1,3-.3,3.7-.2.7-.5,1.3-1,1.8-.5.5-1.1.7-1.8.7-.7,0-1.3-.3-1.7-.8-.5-.5-.7-1.2-.7-2.1,0-.9.7-2.3,2.1-4.4,1.1-1.6,1.7-2.8,1.9-3.6-.7.2-1.9.7-3.6,1.6-2.1,1.2-3.6,1.8-4.5,1.9s-1.6-.2-2.1-.8c-.5-.5-.7-1.1-.7-1.8,0-.7.3-1.3.8-1.7.4-.4,1-.7,1.7-.8.7-.2,2-.2,3.9-.1,2,0,3.3,0,4.1-.1-.5-.5-1.6-1.3-3.3-2.3-1.7-1-2.8-1.8-3.3-2.4-.6-.6-.9-1.3-.9-2.1,0-.7.2-1.4.8-1.9.6-.5,1.2-.8,1.9-.7.7,0,1.4.4,2,1.1.5.6,1.3,1.7,2.2,3.5.9,1.7,1.6,2.9,2.1,3.4.2-.7.3-2.1.3-4,0-1.9.1-3.2.3-3.9.2-.7.5-1.3,1-1.7.5-.5,1.1-.7,1.8-.7.7,0,1.3.3,1.8.8.5.6.8,1.3.7,2.2,0,.9-.8,2.3-2.1,4.3-1.1,1.6-1.7,2.8-1.9,3.5.7-.2,2-.8,3.7-1.7,2.1-1.2,3.6-1.8,4.5-1.8.8,0,1.5.3,2,.8ZM150.2,42.5c.4.6.4,1.3.2,1.9-.2.6-.6,1.1-1.2,1.5-.6.3-1.3.5-2,.4-.7,0-1.9-.3-3.6-.9-1.9-.6-3.3-.9-4-.9.4.7,1.3,1.7,2.6,3,1.4,1.4,2.3,2.4,2.6,3.1.4.8.6,1.5.4,2.2-.2.7-.6,1.3-1.3,1.6-.7.4-1.4.4-2.1.2-.7-.3-1.3-.8-1.7-1.5-.4-.7-.8-2-1.2-3.9-.4-1.9-.8-3.2-1.2-3.8-.4.7-.9,2-1.4,3.9-.5,1.7-.9,2.9-1.2,3.5-.3.6-.8,1.1-1.4,1.5-.6.3-1.2.4-1.9.2-.7-.2-1.2-.6-1.5-1.2-.4-.6-.4-1.4-.1-2.2.3-.8,1.3-2.1,3.1-3.7,1.4-1.3,2.3-2.3,2.7-3-.8,0-2.1.2-3.9.7-2.3.6-4,.9-4.8.7-.9-.2-1.5-.6-1.9-1.3-.3-.6-.4-1.3-.2-1.9.2-.7.6-1.2,1.2-1.5.5-.3,1.2-.4,1.9-.4.7,0,2,.3,3.8.9,1.9.6,3.2.9,4,.9-.4-.7-1.2-1.7-2.6-3-1.4-1.4-2.3-2.4-2.7-3.1-.4-.8-.6-1.5-.4-2.2.2-.7.6-1.3,1.3-1.6.7-.4,1.4-.4,2.1-.2.7.2,1.2.8,1.7,1.5.4.7.8,2,1.2,3.9.4,1.9.8,3.2,1.2,3.8.4-.7.8-1.9,1.3-3.8.5-1.8.9-3,1.3-3.7.4-.7.8-1.1,1.3-1.4.6-.3,1.2-.4,1.9-.2.7.2,1.2.6,1.5,1.3.4.7.4,1.5.1,2.3-.3.8-1.3,2.1-3.1,3.7-1.4,1.3-2.3,2.3-2.7,2.9.8,0,2.1-.2,4-.8,2.4-.6,4-.9,4.8-.7.8.2,1.4.6,1.8,1.3ZM206.8,22.9c.2.7.1,1.4-.2,1.9-.4.6-.9,1-1.5,1.1-.7.2-1.4.1-2.1,0-.7-.2-1.8-.8-3.3-1.7-1.7-1-2.9-1.7-3.7-1.9.2.8.8,2,1.8,3.6,1,1.7,1.6,2.9,1.8,3.6.2.9.2,1.6-.2,2.3-.3.6-.9,1.1-1.6,1.3-.8.2-1.4,0-2-.3-.6-.4-1-1-1.2-1.9-.2-.8-.3-2.1-.2-4,0-1.9,0-3.3-.2-4-.6.5-1.3,1.7-2.3,3.4-.9,1.5-1.6,2.6-2,3.1-.5.5-1.1.9-1.7,1.1-.7.2-1.3,0-1.9-.3-.6-.4-1-.9-1.2-1.5-.2-.7,0-1.4.4-2.2.5-.7,1.8-1.7,3.9-2.8,1.7-.9,2.8-1.7,3.4-2.2-.7-.2-2-.3-3.9-.3-2.4,0-4.1-.1-4.9-.6-.8-.4-1.3-1-1.5-1.7-.2-.7,0-1.3.3-1.9.3-.6.9-1,1.5-1.2.6-.1,1.2-.1,1.9.1.7.2,1.9.8,3.5,1.8,1.7,1,2.9,1.6,3.6,1.8-.2-.7-.8-1.9-1.8-3.6-1-1.7-1.6-2.9-1.8-3.7-.2-.8-.2-1.6.2-2.3.3-.7.9-1.1,1.6-1.3.8-.2,1.4,0,2,.3.6.4,1,1,1.2,1.9.2.8.3,2.1.2,4.1,0,1.9,0,3.3.2,4,.5-.5,1.3-1.7,2.2-3.4.9-1.6,1.6-2.7,2.2-3.3.5-.5,1.1-.9,1.7-1,.7-.2,1.3,0,1.9.2.6.3,1,.9,1.2,1.6.2.8,0,1.5-.4,2.2-.5.7-1.8,1.7-3.9,2.8-1.7.9-2.8,1.6-3.4,2.2.7.2,2.1.3,4.1.3,2.5,0,4.1.2,4.8.6.7.4,1.2,1,1.4,1.7Z"/>
</svg>